# xmcd
#
# Track frame offsets:
#	150
#	12998
#	26958
#	42338
#	57828
#	69157
#	84310
#	96508
#	113267
#	126344
#	143545
#	160642
#
# Disc length: 2375 seconds
#
# Revision: 1
# Processed by: cddbd v1.5.2PL0 Copyright (c) Steve Scherf et al.
# Submitted via: audiograbber 1.83.01
#
DISCID=9209450c
DTITLE=LoCash Cowboys - LoCash Cowboys
DYEAR=2013
DGENRE=Country
TTITLE0=Hey Hey Hey
TTITLE1=Chase a Little Love
TTITLE2=Love Drunk
TTITLE3=Best Seat in the House
TTITLE4=Bounce
TTITLE5=You Make It Look Good
TTITLE6=Little Miss Crazy Hot
TTITLE7=I Hope
TTITLE8=Fine
TTITLE9=Keep in Mind
TTITLE10=Independent Trucker (feat. George Jones)
TTITLE11=C.O.U.N.T.R.Y.
EXTD=
EXTT0=
EXTT1=
EXTT2=
EXTT3=
EXTT4=
EXTT5=
EXTT6=
EXTT7=
EXTT8=
EXTT9=
EXTT10=
EXTT11=
PLAYORDER=
